<svg xmlns="http://www.w3.org/2000/svg" viewBox="0 0 23.06 14.74"><defs><style>.a{fill:#fff;}</style></defs><title>behance</title><path class="a" d="M8.48,14.16a4,4,0,0,0,1.62-.7,4.15,4.15,0,0,0,1-1.13A4.1,4.1,0,0,0,11.73,10a3.75,3.75,0,0,0-.55-2.14A3.14,3.14,0,0,0,9.52,6.63a3.27,3.27,0,0,0,1.08-.8,3.2,3.2,0,0,0,.66-2.15,3.72,3.72,0,0,0-.65-2.14A4.36,4.36,0,0,0,6.91,0H0V14.41H6.44A9.33,9.33,0,0,0,8.48,14.16ZM2.88,2.55H6a5.38,5.38,0,0,1,1.69.22,1.28,1.28,0,0,1,.77,1.32,1.25,1.25,0,0,1-.12.71,1.36,1.36,0,0,1-.46.55,2.92,2.92,0,0,1-1.51.35H2.9Zm0,9.33V8.07H6.39a3.48,3.48,0,0,1,1.43.25,1.48,1.48,0,0,1,.7.61,1.45,1.45,0,0,1,.21.91,1.93,1.93,0,0,1-.19,1,1.84,1.84,0,0,1-.74.75,3.58,3.58,0,0,1-1.45.25Z" transform="translate(0 0.01)"/><path class="a" d="M14.17,13.42a5.74,5.74,0,0,0,3.72,1.3,5.13,5.13,0,0,0,2.16-.34,4.94,4.94,0,0,0,1.82-1.2,3.42,3.42,0,0,0,1-1.91H20.05a2.26,2.26,0,0,1-.57.73,2.4,2.4,0,0,1-1.53.48,2.74,2.74,0,0,1-1.53-.4,2.49,2.49,0,0,1-1.07-2.23h7.7A13.25,13.25,0,0,0,23,7.76a5.06,5.06,0,0,0-.83-2.15,4.36,4.36,0,0,0-1.84-1.56,5.83,5.83,0,0,0-2.47-.49A5.11,5.11,0,0,0,14,5a5.87,5.87,0,0,0-1.15,2,5.73,5.73,0,0,0-.3,2.25,5.22,5.22,0,0,0,.31,2.28A5.19,5.19,0,0,0,14.17,13.42Zm2-7a2.36,2.36,0,0,1,.76-.49,2.26,2.26,0,0,1,.89-.12,2.3,2.3,0,0,1,1.64.58,2.12,2.12,0,0,1,.54.75,2.22,2.22,0,0,1,.19.91H15.4a3,3,0,0,1,.74-1.65Z" transform="translate(0 0.01)"/><path class="a" d="M20.71.9H14.5V2.33h6.21Z" transform="translate(0 0.01)"/></svg>