<svg xmlns="http://www.w3.org/2000/svg" viewBox="0 0 14.13 27.74"><defs><style>.a{fill:#333;}</style></defs><title>Vector(4)</title><path class="a" d="M13.36,28.57a.85.85,0,0,0,.46-.16.84.84,0,0,0,.3-.37.88.88,0,0,0,.06-.48,1,1,0,0,0-.21-.44l-12-12A.62.62,0,0,1,1.87,15a.59.59,0,0,1-.05-.22.64.64,0,0,1,.05-.23A.57.57,0,0,1,2,14.33l12-12a.89.89,0,0,0,.25-.62A.86.86,0,0,0,14,1.08a.89.89,0,0,0-.62-.25.86.86,0,0,0-.61.25l-12,12a2.32,2.32,0,0,0-.68,1.64,2.28,2.28,0,0,0,.68,1.63l12,12A.87.87,0,0,0,13.36,28.57Z" transform="translate(-0.09 -0.83)"/></svg>