<svg xmlns="http://www.w3.org/2000/svg" viewBox="0 0 14.13 27.74"><defs><style>.a{fill:#333;}</style></defs><title>Vector(4)</title><path class="a" d="M1.84,28.57a.88.88,0,0,1-.46-.16.84.84,0,0,1-.3-.37A1,1,0,0,1,1,27.56a1,1,0,0,1,.21-.44l12-12a.64.64,0,0,0,.13-.19.57.57,0,0,0,0-.22.62.62,0,0,0,0-.23.59.59,0,0,0-.13-.18l-12-12A.89.89,0,0,1,1,1.69a.86.86,0,0,1,.25-.61A.9.9,0,0,1,1.85.83a.86.86,0,0,1,.61.25l12,12a2.35,2.35,0,0,1,.67,1.64,2.31,2.31,0,0,1-.67,1.63l-12,12A.87.87,0,0,1,1.84,28.57Z" transform="translate(-0.98 -0.83)"/></svg>