<svg id="Layer_1" data-name="Layer 1" xmlns="http://www.w3.org/2000/svg" viewBox="0 0 20.53 20.53"><defs><style>.cls-1{fill:#3ccf8e;fill-rule:evenodd;}</style></defs><title>check-mark-button</title><path class="cls-1" d="M10.27.12A10.27,10.27,0,1,0,20.53,10.39,10.29,10.29,0,0,0,10.27.12Zm0,18.88a8.61,8.61,0,1,1,8.6-8.61A8.63,8.63,0,0,1,10.27,19Z" transform="translate(0 -0.12)"/><path class="cls-1" d="M13.54,7.12,8.75,11.91,7,10.15a.83.83,0,1,0-1.17,1.17l2.34,2.34a.83.83,0,0,0,1.17,0l5.38-5.37a.83.83,0,0,0,0-1.17A.82.82,0,0,0,13.54,7.12Z" transform="translate(0 -0.12)"/></svg>