<svg xmlns="http://www.w3.org/2000/svg" viewBox="0 0 16 18" fill="none" xmlns:v="https://vecta.io/nano"><path d="M14.25 1.89a5.37 5.37 0 0 0-7.582 0L.876 7.676a.2.2 0 0 0-.058.142.2.2 0 0 0 .058.142l.82.82a.2.2 0 0 0 .282 0l5.79-5.787a3.78 3.78 0 0 1 2.692-1.114 3.77 3.77 0 0 1 2.689 1.114 3.78 3.78 0 0 1 1.114 2.689c0 1.016-.395 1.97-1.114 2.69L6.3 15.227c-.894.894-2.348.894-3.242 0-.433-.433-.67-1.007-.67-1.62s.237-1.187.67-1.62l5.856-5.854c.15-.146.344-.23.553-.23h.002a.77.77 0 0 1 .548.229c.15.15.23.344.23.553s-.082.402-.23.548L5.22 12.016a.2.2 0 0 0-.058.142.2.2 0 0 0 .058.142l.82.82a.2.2 0 0 0 .282 0l4.784-4.784c.442-.442.684-1.027.684-1.65s-.244-1.212-.684-1.65c-.912-.912-2.394-.9-3.306 0l-.568.57-5.285 5.283a3.82 3.82 0 0 0-1.127 2.723 3.82 3.82 0 0 0 1.127 2.718c.752.75 1.737 1.125 2.723 1.125s1.97-.375 2.72-1.125l6.86-6.856c1-1.012 1.57-2.36 1.57-3.8S15.26 2.9 14.25 1.89z" fill="#fd7114"/></svg>