<svg id="Layer_1" data-name="Layer 1" xmlns="http://www.w3.org/2000/svg" viewBox="0 0 15 15"><title>clock</title><path d="M7.5,0A7.48,7.48,0,0,0,1,3.74,7.32,7.32,0,0,0,0,7.5,7.48,7.48,0,0,0,3.74,14,7.32,7.32,0,0,0,7.5,15,7.48,7.48,0,0,0,14,11.26,7.32,7.32,0,0,0,15,7.5,7.48,7.48,0,0,0,11.26,1,7.32,7.32,0,0,0,7.5,0Zm0,14.08a6.59,6.59,0,0,1-2.07-.33,6.13,6.13,0,0,1-1.81-.95A7.35,7.35,0,0,1,2.2,11.38a6.33,6.33,0,0,1-.93-1.81A6.59,6.59,0,0,1,.94,7.5,6.36,6.36,0,0,1,1.46,5,6.48,6.48,0,0,1,5,1.46a6.51,6.51,0,0,1,5.1,0A6.48,6.48,0,0,1,13.54,5a6.51,6.51,0,0,1,0,5.1,6.55,6.55,0,0,1-6,4ZM8,7.31V2.81a.49.49,0,0,0-.14-.33.46.46,0,0,0-.66,0A.49.49,0,0,0,7,2.81V7.5a.43.43,0,0,0,.15.34h0v0l2.33,2.31a.43.43,0,0,0,.33.15.45.45,0,0,0,.33-.14.47.47,0,0,0,.13-.34.44.44,0,0,0-.13-.33Z"/></svg>