<svg xmlns="http://www.w3.org/2000/svg" viewBox="0 0 18.16 20.52"><defs><style>.a{fill:#fff;}.b{fill:#e7e7e7;}</style></defs><title>clutch</title><path class="a" d="M10.27,6.82a3.44,3.44,0,1,1-3.44,3.44A3.44,3.44,0,0,1,10.27,6.82Z" transform="translate(0 0.01)"/><path class="b" d="M14.18,14.54A5.81,5.81,0,0,1,10.27,16a5.57,5.57,0,0,1-5.74-5.39v-.37A5.44,5.44,0,0,1,9.75,4.57a4.51,4.51,0,0,1,.52,0A5.9,5.9,0,0,1,14.2,6l.73.62,3.2-3.2-.8-.73A10.5,10.5,0,0,0,10.27,0,9.9,9.9,0,0,0,0,9.52c0,.22,0,.45,0,.67A10.08,10.08,0,0,0,9.84,20.51h.43a10.42,10.42,0,0,0,7.11-2.69l.78-.72L14.9,13.89Z" transform="translate(0 0.01)"/></svg>