<svg xmlns="http://www.w3.org/2000/svg" viewBox="0 0 20 20"><defs><style>.a{fill:#fff;}</style></defs><title>dribbble</title><path class="a" d="M10,0A10,10,0,0,0,.76,6.17,10,10,0,0,0,8.05,19.81,10,10,0,1,0,10,0Zm6.44,4.91a8.13,8.13,0,0,1,1.78,4.62,15,15,0,0,0-5.62-.1C12.4,9,12.19,8.49,12,8.06A12,12,0,0,0,16.45,4.91ZM15.22,3.65a10.2,10.2,0,0,1-4.06,2.86c-.17-.31-.34-.6-.51-.88A28.38,28.38,0,0,0,8.08,2a8.37,8.37,0,0,1,3.76,0,8.18,8.18,0,0,1,3.38,1.66Zm-8.92-1A26,26,0,0,1,9.47,7,26.66,26.66,0,0,1,2,7.94,8.12,8.12,0,0,1,3.59,4.82,8.25,8.25,0,0,1,6.3,2.62ZM1.76,10V9.7h.76a29.12,29.12,0,0,0,4.85-.4,21.26,21.26,0,0,0,2.94-.69c.19.39.38.78.57,1.2a13.17,13.17,0,0,0-4,2.19,14.33,14.33,0,0,0-3.05,3.4A8.22,8.22,0,0,1,1.76,10Zm3.36,6.64A12.65,12.65,0,0,1,8,13.38a11,11,0,0,1,3.57-1.93A27,27,0,0,1,13,17.65a8.26,8.26,0,0,1-7.9-1Zm9.56.14A29.13,29.13,0,0,0,13.25,11a13.86,13.86,0,0,1,4.89.21,8.25,8.25,0,0,1-3.46,5.54Z" transform="translate(0 0)"/></svg>