<svg xmlns="http://www.w3.org/2000/svg" viewBox="0 0 27 34" fill="none" xmlns:v="https://vecta.io/nano"><path d="M24.415 15.23c-.452-.557-.982-1.04-1.493-1.523-1.277-1.114-2.75-1.913-3.99-3.083-2.87-2.712-3.46-7.187-1.67-10.623-1.788.427-3.44 1.393-4.815 2.452C7.456 6.314 5.49 13.13 7.85 18.98c.08.186.157.372.157.613 0 .41-.295.78-.688.93-.432.186-.904.074-1.258-.223-.113-.092-.212-.198-.295-.316-2.162-2.656-2.515-6.463-1.04-9.51C1.502 13-.247 17.272.028 21.302c.08.93.197 1.857.53 2.786.275 1.114.786 2.23 1.415 3.213 2.044 3.213 5.64 5.516 9.51 5.98 4.127.502 8.548-.223 11.712-2.972 3.537-3.083 4.814-8.023 2.948-12.257l-.255-.483c-.393-.854-.924-1.616-1.572-2.32l.098-.02zm-6.092 11.7c-.55.446-1.434.93-2.122 1.114-2.162.743-4.323-.297-5.64-1.523 2.338-.52 3.714-2.154 4.107-3.807.334-1.486-.275-2.712-.53-4.142-.236-1.374-.197-2.544.354-3.826.334.706.727 1.41 1.18 1.97 1.493 1.857 3.832 2.674 4.323 5.2.08.26.118.52.118.8.06 1.523-.63 3.194-1.808 4.216h.02z" fill="#fd7114"/></svg>