<svg xmlns="http://www.w3.org/2000/svg" viewBox="0 0 21 23" fill="none" xmlns:v="https://vecta.io/nano"><path d="M19.625.875h-18c-.298 0-.585.12-.795.33S.5 1.702.5 2v2.914c0 .588.24 1.167.656 1.583L7.25 12.59v8.534c0 .192.05.38.143.547s.228.308.39.41.35.158.54.167.382-.03.554-.117l4.5-2.25c.38-.19.622-.58.622-1.007V12.59l6.094-6.094c.416-.416.656-.994.656-1.583V2c0-.298-.12-.585-.33-.796s-.497-.33-.796-.33zM12.08 11.33a1.12 1.12 0 0 0-.33.795v6.055L9.5 19.305v-7.18a1.12 1.12 0 0 0-.33-.795L2.75 4.914v-1.79H18.5l.002 1.78-6.424 6.424z" fill="#5a5d5e"/></svg>