<svg xmlns="http://www.w3.org/2000/svg" viewBox="0 0 24.77 20.05"><defs><style>.a{fill:#e7e7e7;fill-rule:evenodd;}</style></defs><title>gith</title><path class="a" d="M2.31.09A6.89,6.89,0,0,0,2,5.16c-1.9,2-3.39,7.55,0,11.7C4.66,20.1,10.8,20.22,13.44,20c5.61.08,8.55-2,9.32-3.1,3.63-5.34,1.51-10.09,0-11.7.79-2.85.18-4.57-.24-5.07-1.42-.48-4.15,1.1-5.34,2A22.59,22.59,0,0,0,7.62,2C4.56-.06,2.81-.14,2.31.09ZM7.79,15.37c.82,0,1.49-1,1.49-2.3s-.67-2.31-1.49-2.31-1.49,1-1.49,2.31S7,15.37,7.79,15.37Zm9.23,0c.82,0,1.49-1,1.49-2.3s-.67-2.31-1.49-2.31-1.49,1-1.49,2.31S16.19,15.37,17,15.37ZM21.51,13c0,5.28-3.59,5.5-8.87,5.5S3,18.33,3.08,13A3.55,3.55,0,0,1,6.35,9.19a9.1,9.1,0,0,1,3.53.14,14.29,14.29,0,0,0,2.55.3,17.4,17.4,0,0,0,2.72-.27,8.3,8.3,0,0,1,3.36-.07A3.81,3.81,0,0,1,21.51,13Z" transform="translate(0 0)"/></svg>