<svg xmlns="http://www.w3.org/2000/svg" viewBox="0 0 22 23" fill="none" xmlns:v="https://vecta.io/nano"><path d="M21.345 20.53l-6.847-6.848a7.84 7.84 0 0 0 1.637-4.82 7.86 7.86 0 0 0-2.318-5.592A7.85 7.85 0 0 0 8.225.953a7.86 7.86 0 0 0-5.592 2.318C1.137 4.763.314 6.75.314 8.863a7.86 7.86 0 0 0 2.318 5.593c1.492 1.495 3.478 2.318 5.592 2.318 1.767 0 3.444-.575 4.817-1.635l6.848 6.845c.02.02.044.036.07.047s.054.017.083.017.056-.006.083-.017.05-.027.07-.047l1.15-1.147c.02-.02.036-.044.047-.07s.017-.054.017-.083-.006-.057-.017-.083-.027-.05-.047-.07zM12.4 13.04c-1.118 1.115-2.6 1.73-4.177 1.73s-3.06-.614-4.177-1.73-1.73-2.6-1.73-4.177a5.87 5.87 0 0 1 1.73-4.177c1.118-1.115 2.6-1.73 4.177-1.73a5.86 5.86 0 0 1 4.177 1.73c1.115 1.118 1.73 2.6 1.73 4.177a5.87 5.87 0 0 1-1.73 4.177z" fill="#929292"/></svg>