<svg xmlns="http://www.w3.org/2000/svg" viewBox="0 0 20.78 20.78"><defs><style>.a{fill:#e7e7e7;fill-rule:evenodd;}</style></defs><title>in</title><path class="a" d="M1.08,6.66H5.13V20.78h-4ZM3,4.9H3A2.34,2.34,0,0,1,.56,2.45,2.36,2.36,0,0,1,3,0,2.36,2.36,0,0,1,5.47,2.45,2.36,2.36,0,0,1,3,4.9ZM21.34,20.78h-4.6V13.47c0-1.91-.72-3.21-2.3-3.21A2.36,2.36,0,0,0,12.25,12a3.43,3.43,0,0,0-.1,1.15v7.64H7.6s.06-12.94,0-14.12h4.55V8.88a4.13,4.13,0,0,1,4-2.35c2.87,0,5.14,2,5.14,6.4Z" transform="translate(-0.56)"/></svg>