<svg xmlns="http://www.w3.org/2000/svg" viewBox="0 0 30 29" fill="none" xmlns:v="https://vecta.io/nano"><path d="M14.996 10.305c-2.574 0-4.675 2.1-4.675 4.675s2.1 4.675 4.675 4.675 4.675-2.1 4.675-4.675-2.1-4.675-4.675-4.675zm14.022 4.675l-.09-5.787c-.11-2.245-.62-4.237-2.262-5.878S23.03 1.16 20.787 1.052L15 .96c-1.936 0-3.855-.018-5.787.09-2.245.11-4.237.62-5.878 2.262S1.18 6.948 1.072 9.193L.98 14.98l.09 5.787c.11 2.245.62 4.237 2.262 5.878s3.634 2.154 5.878 2.262L15 29l5.787-.09c2.245-.11 4.237-.62 5.878-2.262s2.154-3.634 2.262-5.878l.09-5.787zm-14.022 7.194c-3.98 0-7.194-3.213-7.194-7.194s3.213-7.194 7.194-7.194S22.19 11 22.19 14.98s-3.213 7.194-7.193 7.194zm7.488-13.002a1.68 1.68 0 1 1 0-3.36 1.68 1.68 0 0 1 1.553 2.323 1.68 1.68 0 0 1-.364.545c-.156.156-.34.28-.545.364s-.423.128-.643.127z" fill="#fff"/></svg>