<svg xmlns="http://www.w3.org/2000/svg" viewBox="0 0 28 28" fill="none" xmlns:v="https://vecta.io/nano"><path d="M25.5.27H2.493C1.393.27.5 1.152.5 2.24v23.414c0 1.1.893 1.974 1.993 1.974H25.5c1.1 0 2-.885 2-1.974V2.24c0-1.09-.897-1.972-2-1.972z" fill="#fff"/><path d="M6.508 4.036c1.28 0 2.32 1.054 2.32 2.352s-1.04 2.354-2.32 2.354-2.322-1.055-2.322-2.354 1.04-2.352 2.322-2.352zm-2.003 6.5H8.5v13.057H4.505V10.527zm6.515 0h3.842V12.3h.053c.535-1.026 1.84-2.1 3.8-2.1 4.055 0 4.804 2.704 4.804 6.22v7.162h-4.002v-6.35c0-1.515-.027-3.462-2.08-3.462-2.084 0-2.403 1.65-2.403 3.353v6.46H11.02V10.527" fill="#006087"/></svg>