<svg xmlns="http://www.w3.org/2000/svg" viewBox="0 0 382.6 477"><defs><style>.a{fill:#666;}</style></defs><title>location-icon</title><path class="a" d="M238.4,0C133,0,47.2,85.8,47.2,191.2a188.19,188.19,0,0,0,3.4,35.9c.1.7.5,2.8,1.3,6.4a188.3,188.3,0,0,0,12.8,37.7C85.3,319.7,130.6,394.2,230,474a13.54,13.54,0,0,0,17,0c99.3-79.8,144.7-154.3,165.3-202.8a186.19,186.19,0,0,0,12.8-37.7c.8-3.6,1.2-5.7,1.3-6.4a196.63,196.63,0,0,0,3.4-35.9C429.6,85.8,343.8,0,238.4,0ZM399.6,222.4c0,.2-.1.4-.1.6l-.9,4.3v.2a158.91,158.91,0,0,1-11.1,32.6c-.1.1-.1.3-.2.4-18.7,44.3-59.7,111.9-148.9,185.6C149.2,372.4,108.2,304.8,89.5,260.5c-.1-.1-.1-.3-.2-.4a169.35,169.35,0,0,1-11.1-32.6v-.2c-.6-2.3-.8-3.8-.9-4.3,0-.2-.1-.4-.1-.7a163.31,163.31,0,0,1-3-31.2c0-90.5,73.7-164.2,164.2-164.2s164.2,73.7,164.2,164.2a162.8,162.8,0,0,1-3,31.3ZM238.4,71.9C171.5,71.9,117,126.4,117,193.3s54.5,121.4,121.4,121.4,121.4-54.5,121.4-121.4S305.3,71.9,238.4,71.9Zm0,215.8a94.4,94.4,0,1,1,94.4-94.4A94.51,94.51,0,0,1,238.4,287.7Z" transform="translate(-47.2)"/></svg>