<svg xmlns="http://www.w3.org/2000/svg" viewBox="0 0 16.83 23.39"><defs><style>.a{fill:#fff;stroke:#fff;stroke-width:0.2px;}</style></defs><title>location</title><path class="a" d="M8.18,23.49h0a1.23,1.23,0,0,0,1.07.6,1.25,1.25,0,0,0,1.08-.6h0L16.05,14A8.34,8.34,0,0,0,8.91.9h0A8.32,8.32,0,0,0,2.43,14Zm-4.9-10h0l0,0A7.32,7.32,0,0,1,8.94,1.89H9.2a7.23,7.23,0,0,1,5.18,2.19h0a7.28,7.28,0,0,1,.83,9.32l0,0h0L9.48,23A.26.26,0,0,1,9,23ZM5.76,9.1A3.44,3.44,0,1,0,9.2,5.66,3.44,3.44,0,0,0,5.76,9.1Zm1,0A2.46,2.46,0,1,1,9.2,11.56,2.47,2.47,0,0,1,6.74,9.1Z" transform="translate(-0.8 -0.8)"/></svg>