<svg xmlns="http://www.w3.org/2000/svg" viewBox="0 0 20.6 14.6"><defs><style>.a{fill:#fff;stroke:#fff;stroke-width:0.3px;}</style></defs><title>mail-white</title><path class="a" d="M13.83,8.63l-1.59,1.52a1.78,1.78,0,0,1-2.46,0Zm0,0,5.67,5.69a1,1,0,0,1-.25,0H2.75a1,1,0,0,1-.25,0L8.18,8.64l1.6,1.51Zm-3.5.93L2.17,1.83a1.07,1.07,0,0,1,.58-.18h16.5a1.07,1.07,0,0,1,.58.18L11.69,9.57a1,1,0,0,1-1.36,0ZM2.75.85A1.92,1.92,0,0,0,.85,2.8V13.19a1.93,1.93,0,0,0,1.9,2h16.5a1.93,1.93,0,0,0,1.9-2V2.8A1.92,1.92,0,0,0,19.25.85ZM1.65,2.8a1.06,1.06,0,0,1,.05-.31l5.91,5.6L1.84,13.84a1.18,1.18,0,0,1-.19-.65ZM14.41,8.08,20.3,2.49a1.06,1.06,0,0,1,.05.31V13.19a1.18,1.18,0,0,1-.19.65Z" transform="translate(-0.7 -0.7)"/></svg>