<svg xmlns="http://www.w3.org/2000/svg" viewBox="0 0 13.99 13.99"><defs><style>.a{fill:#9fa3a7;fill-rule:evenodd;}</style></defs><title>phone-icon</title><path class="a" d="M14.29,11.49c0-.12-.3-.3-.76-.53l-.54-.3-.63-.35-.53-.3-.25-.18a2.5,2.5,0,0,0-.35-.21A.58.58,0,0,0,11,9.55a.8.8,0,0,0-.5.28,5.41,5.41,0,0,0-.55.62,6,6,0,0,1-.52.61c-.19.19-.34.29-.46.29a.79.79,0,0,1-.22,0l-.21-.09-.24-.14L8.07,11A10.51,10.51,0,0,1,5.73,9.23,10.61,10.61,0,0,1,4,6.89l-.11-.18c-.05-.08-.1-.16-.14-.24l-.09-.21A.79.79,0,0,1,3.61,6c0-.12.1-.27.29-.46a6.18,6.18,0,0,1,.61-.52,5.41,5.41,0,0,0,.62-.55A.8.8,0,0,0,5.41,4a.55.55,0,0,0-.07-.28,2.5,2.5,0,0,0-.21-.35L5,3.13l-.3-.53c-.12-.21-.24-.42-.35-.63L4,1.43C3.77,1,3.59.71,3.47.67a.64.64,0,0,0-.2,0,3.64,3.64,0,0,0-.7.1A4.22,4.22,0,0,0,1.88,1a2.71,2.71,0,0,0-1,1.21A3.86,3.86,0,0,0,.32,4a4.55,4.55,0,0,0,0,.53,3.65,3.65,0,0,0,.12.57l.15.47.2.55L1,6.62a8.77,8.77,0,0,0,.83,1.74A15.24,15.24,0,0,0,4,11a15,15,0,0,0,2.63,2.15A8.94,8.94,0,0,0,8.35,14l.48.18.55.21.47.14a3.86,3.86,0,0,0,.57.12,3.08,3.08,0,0,0,.53,0,3.89,3.89,0,0,0,1.85-.51A2.65,2.65,0,0,0,14,13.08a4.71,4.71,0,0,0,.21-.68,3.75,3.75,0,0,0,.1-.7.76.76,0,0,0,0-.21Z" transform="translate(-0.32 -0.64)"/></svg>