<svg xmlns="http://www.w3.org/2000/svg" viewBox="0 0 512 448"><defs><style>.a{fill:#ff9602;}</style></defs><title>quote-left-solid</title><path class="a" d="M464,256H384V192a64.06,64.06,0,0,1,64-64h8a23.94,23.94,0,0,0,24-24V56a23.94,23.94,0,0,0-24-24h-8A160,160,0,0,0,288,192V432a48,48,0,0,0,48,48H464a48,48,0,0,0,48-48V304A48,48,0,0,0,464,256Zm-288,0H96V192a64.06,64.06,0,0,1,64-64h8a23.94,23.94,0,0,0,24-24V56a23.94,23.94,0,0,0-24-24h-8A160,160,0,0,0,0,192V432a48,48,0,0,0,48,48H176a48,48,0,0,0,48-48V304A48,48,0,0,0,176,256Z" transform="translate(0 -32)"/></svg>