<svg xmlns="http://www.w3.org/2000/svg" viewBox="0 0 209 172.11" xmlns:v="https://vecta.io/nano"><style>.A{isolation:isolate}</style><path class="A" d="M0 172.1h78.62v-88.8h-43.9C36 66.93 40 54.64 46.52 45.76c7.2-8.88 17.7-15.7 32.1-19.8V0C74 0 66.17 2.05 53.72 6.83A92.49 92.49 0 0 0 22.28 28 72 72 0 0 0 4.59 58.74 173 173 0 0 0 .66 83.32L0 93.57zm130.38 0H209v-88.8h-43.9c1.3-16.4 5.25-28.68 11.8-37.56S194.6 30.05 209 26V0c-4.6 0-13.1 2.05-24.9 6.83C171.65 11.6 161.17 19.12 152 28a78.12 78.12 0 0 0-17 30.74 173 173 0 0 0-4 24.58l-.66 10.25z" fill="#fd7114" fill-rule="evenodd" opacity=".08"/></svg>