<svg xmlns="http://www.w3.org/2000/svg" viewBox="0 0 483.3 367.8"><defs><style>.a{fill:#666;}</style></defs><title>stroke-email-icon</title><path class="a" d="M424.3,57.75H59.1A59.15,59.15,0,0,0,0,116.85v249.6a59.15,59.15,0,0,0,59.1,59.1H424.2a59.15,59.15,0,0,0,59.1-59.1V117a59.09,59.09,0,0,0-59-59.2Zm32.1,308.7a32.14,32.14,0,0,1-32.1,32.1H59.1A32.14,32.14,0,0,1,27,366.45V117a32.14,32.14,0,0,1,32.1-32.1H424.2A32.14,32.14,0,0,1,456.3,117v249.5ZM304.8,238.55l118.2-106a13.52,13.52,0,0,0-18.1-20.1l-163,146.3-31.8-28.4c-.1-.1-.2-.2-.2-.3a20,20,0,0,0-2.2-1.9L78.3,112.35a13.53,13.53,0,0,0-18,20.2l119.6,106.9L60.8,351a13.55,13.55,0,0,0-.6,19.1,13.81,13.81,0,0,0,9.9,4.3,13.52,13.52,0,0,0,9.2-3.6l120.9-113.1L233,287a13.46,13.46,0,0,0,18-.1l33.7-30.2,120.2,114.2a13.54,13.54,0,0,0,19.1-.5,13.55,13.55,0,0,0-.5-19.1L304.8,238.55Z" transform="translate(0 -57.75)"/></svg>