<svg xmlns="http://www.w3.org/2000/svg" xmlns:xlink="http://www.w3.org/1999/xlink" viewBox="0 0 23 23"><defs><style>.a{fill:none;}.b{clip-path:url(#a);}.c{fill:#fd7114;}</style><clipPath id="a" transform="translate(0 0)"><rect class="a" width="23" height="23"/></clipPath></defs><title>telephone</title><g class="b"><path class="c" d="M22.41,17,19.55,14.1a2,2,0,0,0-2.86,0l-1.3,1.3a1.53,1.53,0,0,1-2.17,0L7.59,9.77a1.53,1.53,0,0,1,0-2.17h0l1.3-1.3a2,2,0,0,0,0-2.86h0L6,.59a2,2,0,0,0-2.86,0l-1,1a7.3,7.3,0,0,0,0,10.31l8.93,8.93a7.28,7.28,0,0,0,10.31,0h0l1-1a2,2,0,0,0,0-2.86ZM4.13,1.54a.67.67,0,0,1,1,0L7.94,4.4a.68.68,0,0,1,0,.95l-.48.48L3.66,2l.47-.47ZM12,19.9,3.08,11a5.93,5.93,0,0,1-.37-8l3.8,3.8a2.88,2.88,0,0,0,.13,3.94l5.63,5.64a2.89,2.89,0,0,0,3.94.13l3.8,3.8a5.92,5.92,0,0,1-8-.38Zm9.44-1-.47.48-3.81-3.82.47-.47a.68.68,0,0,1,.95,0l2.86,2.86a.66.66,0,0,1,0,.95Z" transform="translate(0 0)"/></g></svg>