<svg xmlns="http://www.w3.org/2000/svg" viewBox="0 0 22.33 19.14"><defs><style>.a{fill:#e7e7e7;fill-rule:evenodd;}</style></defs><title>tweet</title><path class="a" d="M20.48,3a4.84,4.84,0,0,0,2-2.68,8.83,8.83,0,0,1-2.91,1.18A4.45,4.45,0,0,0,16.24,0a4.71,4.71,0,0,0-4.58,4.83,5.62,5.62,0,0,0,.11,1.1,12.78,12.78,0,0,1-9.44-5,5.1,5.1,0,0,0-.62,2.43,4.92,4.92,0,0,0,2,4,4.5,4.5,0,0,1-2.08-.61v.06a4.78,4.78,0,0,0,3.68,4.74,4.37,4.37,0,0,1-1.21.17,4.12,4.12,0,0,1-.86-.09A4.63,4.63,0,0,0,7.56,15,8.93,8.93,0,0,1,1.87,17,7.88,7.88,0,0,1,.78,17a12.48,12.48,0,0,0,7,2.17c8.43,0,13-7.36,13-13.75,0-.21,0-.42,0-.62a9.58,9.58,0,0,0,2.29-2.5A9.05,9.05,0,0,1,20.48,3Z" transform="translate(-0.78)"/></svg>